<svg width="246" height="201" viewBox="0 0 246 201" fill="none" xmlns="http://www.w3.org/2000/svg">
<path d="M86.977 76.6583C93.4267 76.6583 98.6552 71.4298 98.6552 64.9802C98.6552 58.5305 93.4267 53.302 86.977 53.302C80.5273 53.302 75.2988 58.5305 75.2988 64.9802C75.2988 71.4298 80.5273 76.6583 86.977 76.6583Z" fill="#CBD5F5"/>
<path d="M86.9765 101.566C95.9598 101.566 103.242 94.2835 103.242 85.3003C103.242 76.317 95.9598 69.0347 86.9765 69.0347C77.9933 69.0347 70.7109 76.317 70.7109 85.3003C70.7109 94.2835 77.9933 101.566 86.9765 101.566Z" fill="#0F172A"/>
<path d="M135.97 53.6209L136.318 81.6057C136.327 82.3323 135.578 82.8221 134.917 82.5237L113.392 72.8363C112.729 72.5379 112.6 71.6518 113.151 71.1781L134.327 52.8807C134.967 52.3272 135.96 52.7759 135.972 53.6209H135.97Z" fill="#4D4D4D"/>
<path d="M158.668 101.923C167.849 101.923 175.291 94.481 175.291 85.3002C175.291 76.1195 167.849 68.677 158.668 68.677C149.487 68.677 142.045 76.1195 142.045 85.3002C142.045 94.481 149.487 101.923 158.668 101.923Z" fill="#00AEEF"/>
<path d="M122.643 102.698C132.251 102.698 140.04 94.9087 140.04 85.3002C140.04 75.6918 132.251 67.9026 122.643 67.9026C113.034 67.9026 105.245 75.6918 105.245 85.3002C105.245 94.9087 113.034 102.698 122.643 102.698Z" fill="#FACC15"/>
</svg>
